<?xml version="1.0" standalone="no"?>
<!DOCTYPE svg PUBLIC "-//W3C//DTD SVG 20010904//EN"
 "http://www.w3.org/TR/2001/REC-SVG-20010904/DTD/svg10.dtd">
<svg version="1.0" xmlns="http://www.w3.org/2000/svg"
 width="512.000000pt" height="512.000000pt" viewBox="0 0 512.000000 512.000000"
 preserveAspectRatio="xMidYMid meet">
<metadata>
Created by potrace 1.15, written by Peter Selinger 2001-2017
</metadata>
<g transform="translate(0.000000,512.000000) scale(0.100000,-0.100000)"
fill="#000000" stroke="none">
<path d="M984 5006 c-151 -75 -184 -114 -184 -219 0 -45 20 -97 149 -389 l149
-337 -93 -368 c-51 -202 -156 -600 -234 -884 -77 -285 -141 -519 -141 -522 0
-3 94 -7 209 -9 206 -3 210 -3 235 -27 35 -33 35 -79 0 -112 -25 -24 -28 -24
-259 -27 l-234 -3 -17 -57 c-9 -31 -18 -72 -21 -90 l-6 -32 212 0 c117 0 220
-4 230 -10 28 -14 44 -61 32 -93 -18 -48 -39 -52 -291 -57 l-234 -5 -24 -92
c-24 -90 -26 -93 -61 -104 -175 -55 -338 -231 -385 -415 -21 -80 -21 -228 0
-308 53 -204 223 -373 429 -426 77 -20 112 -20 2115 -20 2003 0 2038 0 2115
20 206 53 376 222 429 426 21 80 21 228 0 308 -49 192 -196 347 -399 422 -48
18 -125 19 -1685 24 l-1636 5 113 840 c61 462 112 843 113 848 0 4 26 7 58 7
138 0 295 65 424 177 153 132 226 154 538 162 240 7 259 11 307 63 40 43 53
90 53 201 0 120 -19 170 -83 221 l-39 31 -567 5 -567 5 -38 25 c-43 29 -39 23
-230 445 -80 177 -159 337 -176 358 -38 45 -86 67 -150 67 -37 0 -71 -12 -156
-54z m-277 -3601 c205 -61 339 -267 304 -468 -32 -180 -167 -315 -351 -349
-173 -33 -363 70 -443 239 -30 63 -32 75 -32 173 0 97 2 110 32 173 37 77 116
163 184 197 96 50 212 63 306 35z m3918 1 c121 -32 223 -118 278 -233 30 -63
32 -76 32 -173 0 -98 -2 -110 -32 -173 -80 -168 -265 -270 -439 -240 -185 32
-323 168 -355 350 -50 287 234 545 516 469z m-2951 -352 c41 -42 32 -94 -21
-122 -28 -15 -204 -16 -237 -1 -29 14 -51 59 -41 89 4 11 16 30 28 40 18 17
35 20 133 20 107 0 112 -1 138 -26z m511 1 c24 -24 31 -57 19 -90 -13 -32 -59
-45 -163 -45 -90 0 -102 2 -127 23 -20 17 -27 33 -27 57 0 24 7 40 27 57 25
21 36 23 137 23 103 0 111 -1 134 -25z m509 4 c32 -25 35 -75 7 -110 -18 -23
-25 -24 -141 -24 -116 0 -123 1 -141 24 -28 35 -25 85 7 110 23 18 41 21 134
21 93 0 111 -3 134 -21z m512 -2 c20 -17 27 -33 27 -57 0 -24 -7 -40 -27 -57
-25 -21 -37 -23 -127 -23 -104 0 -150 13 -163 45 -12 33 -5 66 19 90 23 24 31
25 134 25 101 0 112 -2 137 -23z m511 3 c12 -10 24 -29 28 -40 10 -30 -12 -75
-41 -89 -33 -15 -209 -14 -237 1 -53 28 -62 80 -21 122 26 25 31 26 138 26 98
0 115 -3 133 -20z"/>
<path d="M680 175 c0 -57 3 -69 25 -90 l24 -25 509 0 509 0 22 24 c18 19 24
40 28 90 l6 66 -562 0 -561 0 0 -65z"/>
<path d="M3920 185 c0 -60 19 -109 45 -119 9 -3 109 -6 221 -6 204 0 205 0
229 25 22 21 25 33 25 90 l0 65 -260 0 -260 0 0 -55z"/>
</g>
</svg>
